# xmcd CD database file
#
# Track frame offsets:
#	150
#	13681
#	26313
#	40061
#	55253
#	71708
#	85851
#	97568
#	110213
#	122771
#	134703
#	148598
#	159593
#	183218
#
# Disc length: 2604 seconds
#
# Revision: 0
# Processed by: cddbd v1.5.2PL0 Copyright (c) Steve Scherf et al.
# Submitted via: CDex 1.51
#
DISCID=b90a2a0e
DTITLE=02 Charles Aznavour - Coleção Folha Grandes Vozes
DYEAR=2012
DGENRE=Rhythmic Soul
TTITLE0=J'en Deduis que je T'aime
TTITLE1=Quand tu viens chez moi ... mon coeur
TTITLE2=Sur ma vje
TTITLE3=Je m'voyais déjà
TTITLE4=Tu te laisses aller
TTITLE5=Il faut savoir
TTITLE6=Mon amour
TTITLE7=Si je n'avais plus
TTITLE8=Dis-moi
TTITLE9=C'est ça
TTITLE10=Ma main a besoin de ta main
TTITLE11=Tant que l'on S'aimera
TTITLE12=La ville
TTITLE13=Pour faire une jam
EXTD=YEAR: 2012
EXTT0=
EXTT1=
EXTT2=
EXTT3=
EXTT4=
EXTT5=
EXTT6=
EXTT7=
EXTT8=
EXTT9=
EXTT10=
EXTT11=
EXTT12=
EXTT13=
PLAYORDER=
